<svg width="66" height="64" viewBox="0 0 66 64" fill="none" xmlns="http://www.w3.org/2000/svg">
<path d="M65.8038 35.9531C65.6402 35.6257 65.2309 35.462 64.9035 35.3802C63.0211 35.3802 46.8156 34.7254 46.8156 15.9009C46.8156 15.328 46.3246 14.8369 45.7516 14.8369C45.1787 14.8369 44.6876 15.328 44.6876 15.9009C44.6876 34.7254 28.4822 35.3802 26.6816 35.3802C26.436 35.3802 26.1905 35.462 26.0268 35.6257C25.8631 35.7076 25.7813 35.8713 25.6994 35.9531C25.5357 36.2805 25.5357 36.6897 25.6994 37.0171C25.8631 37.3445 26.2723 37.59 26.6816 37.59C26.6816 37.59 26.6816 37.59 26.7634 37.59C28.6459 37.59 44.7695 38.2448 44.7695 57.0693C44.7695 57.6422 45.2606 58.1333 45.8335 58.1333C46.4064 58.1333 46.8975 57.6422 46.8975 57.0693C46.8975 38.3266 63.0211 37.59 64.9035 37.59C65.3128 37.59 65.6402 37.3445 65.8857 37.0171C66.0494 36.6897 66.0494 36.2805 65.8038 35.9531ZM45.7516 49.0484C43.3781 41.2731 37.5671 37.9174 32.9837 36.4442C37.5671 34.971 43.3781 31.6153 45.7516 23.8399C48.1252 31.6153 53.9362 34.971 58.5196 36.4442C53.9362 37.9174 48.1252 41.2731 45.7516 49.0484Z" fill="#E8616B"/>
<path d="M32.247 14.6733C32.8199 14.6733 33.311 14.1822 33.311 13.5275C33.311 12.9545 32.8199 12.4635 32.247 12.4635C31.2649 12.4635 22.4255 12.1361 22.4255 1.82352C22.4255 1.2506 21.9345 0.759521 21.3616 0.759521C20.7886 0.759521 20.2976 1.2506 20.2976 1.82352C20.2976 12.1361 11.4582 12.4635 10.4761 12.4635C10.3943 12.4635 10.3943 12.4635 10.3943 12.4635C9.82134 12.5453 9.41211 12.9545 9.41211 13.5275C9.41211 14.1004 9.90318 14.5915 10.4761 14.5915C11.5401 14.5915 20.2976 14.9188 20.2976 25.2314C20.2976 25.8043 20.7886 26.2954 21.3616 26.2954C21.8526 26.3772 22.3437 25.8862 22.3437 25.3132C22.3437 15.0007 31.183 14.6733 32.1652 14.6733H32.247ZM21.2797 19.3385C19.9702 16.2284 17.5967 14.5096 15.3868 13.5275C17.7604 12.5453 19.9702 10.6629 21.2797 7.71641C22.5892 10.8265 24.9628 12.5453 27.1726 13.5275C24.7991 14.5096 22.5892 16.3921 21.2797 19.3385Z" fill="#E8616B"/>
<path d="M22.835 49.3765C21.8528 49.3765 13.0135 49.0492 13.0135 38.7366C13.0135 38.1637 12.5224 37.6726 11.9495 37.6726C11.3766 37.6726 10.8855 38.1637 10.8855 38.7366C10.8855 49.0492 2.04615 49.3765 1.064 49.3765C0.98215 49.3765 0.98215 49.3765 0.98215 49.3765C0.409229 49.4584 0 49.8676 0 50.4405C0 51.0135 0.491075 51.5045 1.064 51.5045C2.12799 51.5045 10.8855 51.8319 10.8855 62.1445C10.8855 62.7174 11.3766 63.2085 11.9495 63.2085C12.4406 63.3722 12.9316 62.8811 12.9316 62.2263C12.9316 51.9138 21.771 51.5864 22.7531 51.5864H22.835C23.4079 51.5864 23.899 51.0953 23.899 50.4405C23.899 49.8676 23.4079 49.3765 22.835 49.3765ZM11.8676 56.3334C10.4763 53.2233 8.18458 51.5045 5.97475 50.5224C8.34827 49.5402 10.5581 47.6578 11.8676 44.7113C13.1772 47.8215 15.5507 49.5402 17.7605 50.5224C15.387 51.5045 13.1772 53.387 11.8676 56.3334Z" fill="#E8616B"/>
</svg>
