<svg width="85" height="85" viewBox="0 0 85 85" fill="none" xmlns="http://www.w3.org/2000/svg">
<circle cx="42.5" cy="42.5" r="42.5" fill="#FFF1F2"/>
<path d="M24.0002 51.2C24.442 51.2 24.8002 50.8418 24.8002 50.4C24.8002 49.9581 24.442 49.6 24.0002 49.6C23.5584 49.6 23.2002 49.9581 23.2002 50.4C23.2002 50.8418 23.5584 51.2 24.0002 51.2Z" fill="#E8616B"/>
<path d="M23.1999 63.2C23.6417 63.2 23.9999 62.8418 23.9999 62.4C23.9999 61.9581 23.6417 61.6 23.1999 61.6C22.7581 61.6 22.3999 61.9581 22.3999 62.4C22.3999 62.8418 22.7581 63.2 23.1999 63.2Z" fill="#E8616B"/>
<path d="M47.2004 20.8C47.6422 20.8 48.0004 20.4418 48.0004 20C48.0004 19.5581 47.6422 19.2 47.2004 19.2C46.7586 19.2 46.4004 19.5581 46.4004 20C46.4004 20.4418 46.7586 20.8 47.2004 20.8Z" fill="#E8616B"/>
<path d="M38.8442 61.9561C38.5318 61.6437 38.0254 61.6437 37.713 61.9561L36.8004 62.8687L35.888 61.9563C35.5756 61.6439 35.0692 61.6439 34.7568 61.9563C34.4444 62.2687 34.4444 62.7751 34.7568 63.0875L35.6692 63.9999L34.7568 64.9123C34.4444 65.2247 34.4444 65.7311 34.7568 66.0435C34.913 66.1997 35.1178 66.2779 35.3224 66.2779C35.527 66.2779 35.7318 66.1997 35.888 66.0435L36.8004 65.1311L37.7128 66.0435C37.869 66.1997 38.0738 66.2779 38.2784 66.2779C38.483 66.2779 38.6878 66.1997 38.844 66.0435C39.1564 65.7311 39.1564 65.2247 38.844 64.9123L37.9316 63.9999L38.844 63.0875C39.1566 62.7749 39.1566 62.2687 38.8442 61.9561Z" fill="#E8616B"/>
<path d="M46.4001 32C46.4001 24.0598 39.9399 17.6 32.0001 17.6C24.0603 17.6 17.6001 24.0598 17.6001 32C17.6001 39.9402 24.0603 46.4 32.0001 46.4C39.9399 46.4 46.4001 39.9402 46.4001 32ZM19.2001 32C19.2001 24.9422 24.9423 19.2 32.0001 19.2C39.0579 19.2 44.8001 24.9422 44.8001 32C44.8001 39.0578 39.0579 44.8 32.0001 44.8C24.9423 44.8 19.2001 39.0578 19.2001 32Z" fill="#043353"/>
<path d="M53.6003 40.7999C46.5425 40.7999 40.8003 46.5421 40.8003 53.5999C40.8003 60.6577 46.5425 66.3999 53.6003 66.3999C60.6581 66.3999 66.4003 60.6577 66.4003 53.5999C66.4003 46.5421 60.6581 40.7999 53.6003 40.7999ZM53.6003 64.7999C47.4245 64.7999 42.4003 59.7757 42.4003 53.5999C42.4003 47.4241 47.4245 42.3999 53.6003 42.3999C59.7761 42.3999 64.8003 47.4241 64.8003 53.5999C64.8003 59.7757 59.7761 64.7999 53.6003 64.7999Z" fill="#043353"/>
<path d="M27.5284 33.6114C27.6088 33.297 27.7828 33.0292 28.0156 32.7888C28.0174 33.0862 28.0536 33.4026 28.1292 33.74C28.6456 36.0536 30.7558 39.1686 32.9378 39.1686C33.1002 39.1686 33.2636 39.1514 33.4268 39.115C35.7736 38.5908 36.4916 34.4838 35.9362 31.997C35.861 31.6596 35.7592 31.358 35.6344 31.0882C35.9468 31.207 36.218 31.3748 36.4244 31.6246C37.8868 33.3976 36.7698 38.0598 36.2166 39.707C36.0752 40.1254 36.301 40.5792 36.719 40.7202C36.8042 40.7488 36.89 40.762 36.9744 40.762C37.3088 40.762 37.6198 40.5514 37.7322 40.2174C37.947 39.5814 39.6296 34.3376 38.1214 31.3416C39.5924 32.548 39.7838 34.6748 39.7878 34.7198C39.8182 35.1402 40.169 35.4612 40.5846 35.4612C40.6034 35.4612 40.6228 35.4604 40.6416 35.4592C41.0822 35.428 41.4142 35.0456 41.383 34.6046C41.3752 34.4858 41.1534 31.6768 39.0478 30.0292C38.3426 29.4778 37.5172 29.1328 36.5872 28.9812C38.4768 27.0186 38.7442 24.5002 38.5414 23.1858C38.4742 22.749 38.068 22.4534 37.629 22.517C37.1922 22.5842 36.893 22.9928 36.9602 23.4294C36.9646 23.4604 37.3192 25.9854 35.3858 27.9302C35.5666 26.8274 35.5498 25.2244 34.9032 22.993C34.7806 22.5692 34.3376 22.3246 33.9118 22.4472C33.4876 22.5702 33.243 23.014 33.3658 23.4382C33.9572 25.478 33.9436 26.8566 33.7936 27.7182C33.0512 26.8204 31.8532 26.35 30.6386 26.6214C29.8042 26.8078 29.0926 27.3078 28.634 28.0292C28.4506 28.3184 28.3308 28.6326 28.248 28.955C27.7458 28.239 27.1476 26.9968 26.8152 24.9006C26.7456 24.4642 26.3356 24.1686 25.9004 24.2354C25.4636 24.3046 25.166 24.7144 25.2356 25.1506C25.5996 27.4504 26.268 28.9094 26.902 29.8304C24.351 28.9142 23.5944 26.5404 23.5572 26.418C23.4306 25.997 22.9884 25.7552 22.565 25.8798C22.1408 26.0048 21.8986 26.4494 22.0236 26.8732C22.3988 28.149 23.7116 30.3144 26.2562 31.287C25.479 31.8198 24.8794 32.4834 24.476 33.2828C23.2714 35.6688 24.265 38.305 24.308 38.4164C24.4306 38.7336 24.733 38.9286 25.054 38.9286C25.15 38.9286 25.2478 38.911 25.3422 38.8746C25.754 38.7152 25.9594 38.252 25.8 37.8398C25.7922 37.8198 25.0402 35.8176 25.8722 34.0748C25.7802 37.4278 29.5342 41.4594 29.9992 41.944C30.1562 42.1076 30.3664 42.19 30.5766 42.19C30.7758 42.19 30.975 42.1162 31.1306 41.9674C31.4494 41.6616 31.4602 41.1552 31.154 40.8362C29.9526 39.5836 26.9588 35.843 27.5284 33.6114ZM33.0784 37.5532C32.055 37.7876 30.1494 35.4492 29.6902 33.3914C29.4652 32.3808 29.7808 32.0984 29.916 31.9782C30.2778 31.6544 30.9792 31.4642 31.684 31.3072C32.1754 31.1974 32.673 31.1026 33.0864 31.1026C33.266 31.1026 33.4294 31.1206 33.57 31.1624C33.7434 31.2144 34.1496 31.3354 34.3754 32.3456C34.8338 34.4032 34.1072 37.3234 33.0784 37.5532ZM29.9846 28.8876C30.2136 28.527 30.5698 28.2766 30.987 28.1836C31.8494 27.9894 32.705 28.5356 32.8972 29.3964C32.906 29.4364 32.908 29.4768 32.9138 29.5172C32.3772 29.5368 31.8352 29.634 31.3354 29.7452C30.8368 29.8564 30.3052 29.999 29.8114 30.2092C29.7996 30.1702 29.7826 30.1336 29.7738 30.0932C29.6806 29.6766 29.7556 29.2484 29.9846 28.8876Z" fill="#E8616B"/>
<path d="M58.3961 45.98L56.5615 47.06C56.2323 46.884 55.8807 46.7396 55.5039 46.642C55.1295 46.5456 54.7513 46.5 54.3747 46.4936L53.2953 44.6604C53.0727 44.2796 52.5835 44.1522 52.1999 44.3768C51.8195 44.601 51.6929 45.0912 51.9171 45.4722L52.6819 46.7712C52.4015 46.8724 52.1279 46.9984 51.8655 47.153C50.7609 47.8034 49.9757 48.8456 49.6545 50.0858C49.6005 50.2932 49.5775 50.5088 49.5515 50.7232C48.2037 51.6678 47.2291 53.0724 46.8029 54.7202C46.3497 56.4682 46.5623 58.28 47.3989 59.8206C48.2465 61.38 49.6301 62.4756 51.2949 62.9066C51.8003 63.037 52.3129 63.102 52.8231 63.102C53.9941 63.102 55.1559 62.7614 56.1989 62.0978C57.6779 61.1568 58.7419 59.6752 59.1943 57.9268C59.6321 56.234 59.4211 54.5356 58.7315 53.1114C58.8137 52.9108 58.8921 52.707 58.9481 52.492C59.3607 50.8976 58.9175 49.28 57.9071 48.1252L59.2083 47.3592C59.5887 47.135 59.7153 46.6448 59.4911 46.2638C59.2689 45.8832 58.7791 45.7562 58.3961 45.98ZM57.6461 57.5258C57.2953 58.8804 56.4757 60.025 55.3399 60.748C54.2211 61.459 52.9289 61.6766 51.6961 61.3574C50.7559 61.1144 49.9367 60.5786 49.3195 59.8212C49.9831 59.7708 50.5723 59.3136 50.7485 58.6334C50.9697 57.7778 50.4557 56.905 49.6003 56.6836C49.0897 56.5514 48.5759 56.6854 48.1951 56.9936C48.1425 56.3768 48.1903 55.7448 48.3517 55.1212C48.7025 53.7666 49.5213 52.622 50.6579 51.899C51.4399 51.4018 52.3071 51.1462 53.1789 51.1462C53.5539 51.1462 53.9305 51.1934 54.3015 51.2896C55.6209 51.6308 56.6553 52.5406 57.2535 53.7198C56.6565 53.6346 56.0781 54.0038 55.9233 54.6012C55.7573 55.2428 56.1429 55.8974 56.7845 56.0636C57.1569 56.16 57.5309 56.0664 57.8141 55.8488C57.8421 56.397 57.7921 56.9614 57.6461 57.5258ZM54.7025 49.7402C53.6323 49.4644 52.5317 49.4876 51.4841 49.7892C51.7579 49.273 52.1613 48.8356 52.6775 48.5316C53.4143 48.0976 54.2767 47.9766 55.1025 48.1914C56.5637 48.5692 57.5203 49.9046 57.4933 51.3498C56.7387 50.5912 55.7931 50.0226 54.7025 49.7402Z" fill="#E8616B"/>
<path d="M51.7641 53.1118C51.1225 52.9458 50.4677 53.3314 50.3017 53.973C50.1357 54.6146 50.5213 55.2694 51.1629 55.4354C51.8045 55.6014 52.4593 55.2158 52.6253 54.5742C52.7913 53.9326 52.4057 53.2778 51.7641 53.1118Z" fill="#043353"/>
<path d="M54.6482 56.3369C53.7928 56.1155 52.9198 56.6297 52.6984 57.4851C52.477 58.3405 52.991 59.2135 53.8464 59.4349C54.702 59.6563 55.575 59.1421 55.7962 58.2867C56.0178 57.4313 55.5038 56.5583 54.6482 56.3369Z" fill="#043353"/>
<path d="M56.8 39.2C61.6524 39.2 65.6 35.2524 65.6 30.4C65.6 25.5476 61.6524 21.6 56.8 21.6C51.9476 21.6 48 25.5476 48 30.4C48 35.2524 51.9476 39.2 56.8 39.2ZM56.8 23.2C60.7704 23.2 64 26.43 64 30.4C64 34.37 60.7704 37.6 56.8 37.6C52.8296 37.6 49.6 34.37 49.6 30.4C49.6 26.43 52.8296 23.2 56.8 23.2Z" fill="#043353"/>
<path d="M52.8003 29.6C52.3581 29.6 52.0003 29.9582 52.0003 30.4C52.0003 30.8418 52.3581 31.2 52.8003 31.2H53.6003C53.6003 31.5774 53.6777 31.9344 53.7981 32.2708L53.0347 33.0342C52.7223 33.3466 52.7223 33.853 53.0347 34.1654C53.1909 34.3216 53.3957 34.3998 53.6003 34.3998C53.8049 34.3998 54.0097 34.3216 54.1659 34.1654L54.7201 33.6112C55.2809 34.096 56.0025 34.4 56.8003 34.4C57.5981 34.4 58.3197 34.096 58.8805 33.6116L59.4347 34.1658C59.5909 34.322 59.7957 34.4002 60.0003 34.4002C60.2049 34.4002 60.4097 34.322 60.5659 34.1658C60.8783 33.8534 60.8783 33.347 60.5659 33.0346L59.8025 32.2712C59.9229 31.9344 60.0003 31.5774 60.0003 31.2H60.8003C61.2425 31.2 61.6003 30.8418 61.6003 30.4C61.6003 29.9582 61.2425 29.6 60.8003 29.6H60.0003C60.0003 29.2432 59.9281 28.9056 59.8199 28.5848L61.1581 27.9156C61.5535 27.718 61.7135 27.2374 61.5159 26.8422C61.3175 26.4472 60.8369 26.2864 60.4425 26.4844L58.9385 27.2364C58.3707 26.7222 57.6253 26.4 56.8003 26.4C55.9753 26.4 55.2299 26.7222 54.6621 27.2364L53.1581 26.4844C52.7627 26.2864 52.2823 26.4472 52.0847 26.8422C51.8871 27.2376 52.0471 27.718 52.4425 27.9156L53.7807 28.5848C53.6725 28.9056 53.6003 29.2432 53.6003 29.6H52.8003ZM55.2003 29.6C55.2003 28.7176 55.9183 28 56.8003 28C57.6823 28 58.4003 28.7176 58.4003 29.6V31.2C58.4003 32.0824 57.6823 32.8 56.8003 32.8C55.9183 32.8 55.2003 32.0824 55.2003 31.2V29.6Z" fill="#E8616B"/>
<path d="M36.0004 56.0001C36.0004 53.3533 33.8472 51.2001 31.2004 51.2001C28.5536 51.2001 26.4004 53.3533 26.4004 56.0001C26.4004 58.6469 28.5536 60.8001 31.2004 60.8001C33.8472 60.8001 36.0004 58.6469 36.0004 56.0001ZM31.2004 59.2001C29.4356 59.2001 28.0004 57.7645 28.0004 56.0001C28.0004 54.2357 29.4356 52.8001 31.2004 52.8001C32.9652 52.8001 34.4004 54.2357 34.4004 56.0001C34.4004 57.7645 32.9652 59.2001 31.2004 59.2001Z" fill="#043353"/>
</svg>
