<svg width="21" height="21" viewBox="0 0 21 21" fill="none" xmlns="http://www.w3.org/2000/svg">
<path d="M20.0651 9.61306C19.2021 9.61306 11.4349 9.34416 11.4349 0.873914C11.4349 0.403345 11.0034 0 10.5 0C9.99658 0 9.56507 0.403345 9.56507 0.873914C9.56507 9.34416 1.79795 9.61306 0.934931 9.61306C0.863014 9.61306 0.863014 9.61306 0.863014 9.61306C0.359589 9.68028 0 10.0164 0 10.487C0 10.9575 0.431507 11.3609 0.934931 11.3609C1.86986 11.3609 9.56507 11.6298 9.56507 20.1C9.56507 20.5706 9.99658 20.9739 10.5 20.9739C10.9315 21.1084 11.363 20.705 11.363 20.1673C11.363 11.697 19.1301 11.4281 19.9932 11.4281H20.0651C20.5685 11.4281 21 11.0248 21 10.487C21 10.0164 20.5685 9.61306 20.0651 9.61306ZM10.4281 15.3271C9.20548 12.7726 7.19178 11.3609 5.25 10.5542C7.33562 9.7475 9.2774 8.20135 10.4281 5.78128C11.5788 8.3358 13.6644 9.7475 15.6062 10.5542C13.5205 11.3609 11.5788 12.907 10.4281 15.3271Z" fill="#E8616B"/>
</svg>
