<svg width="40" height="36" viewBox="0 0 40 36" fill="none" xmlns="http://www.w3.org/2000/svg">
<path d="M37.7559 11.4373H33.714L28.0881 0.810853C27.7845 0.237483 27.0738 0.0187395 26.5002 0.322302C25.9268 0.625864 25.708 1.33684 26.0116 1.91021L31.0556 11.4373H8.93763L13.9816 1.91021C14.2851 1.33684 14.0664 0.625864 13.493 0.322302C12.9198 0.0188178 12.2087 0.237483 11.9051 0.810853L6.27911 11.4373H2.24406C1.00671 11.4373 0 12.444 0 13.6814V16.2911C0 17.4763 0.923845 18.4493 2.0893 18.5292L6.03045 34.9147C6.1574 35.4427 6.62966 35.8148 7.17264 35.8148H32.8196C33.3624 35.8148 33.8345 35.4429 33.9616 34.9153L37.912 18.529C39.0769 18.4485 40 17.4759 40 16.2911V13.6814C40 12.444 38.9934 11.4373 37.7559 11.4373V11.4373ZM2.34956 13.7869H37.6504V16.1855H2.34956V13.7869ZM33.9782 24.8216H28.8347L29.6196 18.535H35.4937L33.9782 24.8216ZM21.1764 33.4652V27.1711H26.1735L25.3876 33.4652H21.1764ZM14.6153 33.4652L13.8288 27.1711H18.8268V33.4652H14.6153ZM4.50731 18.535H10.3818L11.1674 24.8216H6.0194L4.50731 18.535ZM12.7495 18.535H18.8268V24.8216H13.5352L12.7495 18.535ZM21.1764 24.8216V18.535H27.2518L26.4669 24.8216H21.1764ZM6.58447 27.1711H11.461L12.2475 33.4652H8.09837L6.58447 27.1711ZM31.8943 33.4652H27.7554L28.5413 27.1711H33.4117L31.8943 33.4652Z" fill="white"/>
</svg>
