<svg width="21" height="20" viewBox="0 0 21 20" fill="none" xmlns="http://www.w3.org/2000/svg">
<path d="M15.5949 19.006H15.5669C11.7252 18.9115 8.05913 17.3775 5.29486 14.708C2.62437 11.9463 1.08955 8.28159 0.99474 4.44103C0.989082 3.90303 1.20032 3.38539 1.58085 3.00503L4.29486 0.293031C4.68535 -0.0973513 5.31836 -0.0973513 5.70886 0.293031L9.70885 4.29303C10.0992 4.68353 10.0992 5.31653 9.70885 5.70703L8.11285 7.30003C8.40886 8.40595 8.95413 9.42943 9.70685 10.292C10.5679 11.045 11.5901 11.5907 12.6949 11.887L14.2949 10.293C14.6854 9.90265 15.3184 9.90265 15.7089 10.293L19.7089 14.293C20.0992 14.6835 20.0992 15.3165 19.7089 15.707L16.9949 18.42C16.6248 18.7939 16.1209 19.0048 15.5949 19.006ZM4.99986 2.41503H4.99485L2.99486 4.41903C3.0764 7.73769 4.40118 10.9047 6.70686 13.293C9.09529 15.5979 12.2617 16.9226 15.5799 17.005L17.5869 15L14.9949 12.415L13.7019 13.707C13.5169 13.8941 13.2649 13.9995 13.0019 14C12.9316 14.0001 12.8616 13.9927 12.7929 13.978C11.1265 13.6094 9.57924 12.8286 8.29286 11.707C7.17131 10.4206 6.39047 8.8734 6.02185 7.20703C5.95232 6.8758 6.05504 6.53187 6.29486 6.29303L7.58685 5.00003L4.99986 2.41503Z" fill="#E8616B"/>
</svg>
