<svg width="14" height="14" viewBox="0 0 14 14" fill="none" xmlns="http://www.w3.org/2000/svg">
<path d="M12.577 14.0001L7.81005 9.23407C5.65387 10.6565 2.77106 10.2165 1.13737 8.21561C-0.496313 6.21476 -0.350859 3.3022 1.47405 1.47407C3.30186 -0.351541 6.21475 -0.497625 8.21604 1.13595C10.2173 2.76953 10.6576 5.65266 9.23505 7.80907L14 12.5771L12.577 14.0001ZM5.03405 2.01406C3.5933 2.01315 2.35253 3.03008 2.07053 4.44297C1.78854 5.85585 2.54386 7.27118 3.87457 7.82342C5.20529 8.37565 6.74079 7.91098 7.54203 6.71358C8.34328 5.51617 8.18711 3.91953 7.16905 2.90007C6.6043 2.33141 5.83549 2.01236 5.03405 2.01406Z" fill="#E8616B"/>
</svg>
