<svg width="70" height="70" viewBox="0 0 70 70" fill="none" xmlns="http://www.w3.org/2000/svg">
<path d="M30.9196 64.4362C24.7834 64.4362 10.3467 60.0555 10.233 59.7795C6.85451 51.5832 3.38855 39.1496 7.52333 27.9035C7.61625 27.6508 7.7991 27.4412 8.03688 27.315C8.27466 27.1887 8.55066 27.1545 8.81205 27.2191C11.4414 27.8664 14.222 25.7001 14.2187 22.9689C14.2213 22.6771 14.3392 22.3982 14.5467 22.193C14.7541 21.9878 15.0344 21.8731 15.3261 21.8738C18.7109 21.9088 20.8853 17.4506 18.747 14.7917C18.656 14.6756 18.5892 14.5425 18.5504 14.4002C18.5116 14.2579 18.5016 14.1092 18.5211 13.963C18.5405 13.8168 18.589 13.6759 18.6636 13.5487C18.7382 13.4215 18.8375 13.3104 18.9556 13.2221C22.696 10.4992 27.2602 8.18221 32.5222 6.33473C32.7027 6.27556 32.8954 6.26382 33.0818 6.30064C33.2682 6.33745 33.4419 6.4216 33.5864 6.54497C33.7308 6.66835 33.8411 6.82681 33.9066 7.00512C33.9722 7.18343 33.9907 7.3756 33.9605 7.56315C33.1454 12.0304 39.3949 13.5651 41.1731 9.88559C41.2974 9.62845 41.5174 9.43015 41.786 9.33307C42.0546 9.23598 42.3506 9.24782 42.6106 9.36606C44.3051 10.1365 46.5375 9.90815 48.0395 8.81071C48.2428 8.66217 48.4911 8.5883 48.7425 8.60158C48.9939 8.61485 49.2331 8.71446 49.4196 8.88358C53.4776 12.5647 57.7792 5.87016 54.4285 3.096C53.7039 2.49635 54.0653 1.29131 54.9811 1.16936C62.9505 0.10432 68.8306 0.000961045 68.889 4.01389e-06C69.0379 -0.000396842 69.1853 0.0292304 69.3225 0.0871144C69.4597 0.144998 69.5838 0.22995 69.6874 0.336891C69.791 0.443831 69.8719 0.570564 69.9254 0.709511C69.9789 0.848459 70.0039 0.996768 69.9987 1.14557C68.6738 29.14 61.354 64.4358 30.9196 64.4362Z" fill="#81C784"/>
<path d="M6.17383 45.7468C6.99072 50.9954 8.62109 55.8693 10.2329 59.7791C10.3466 60.0551 24.7833 64.4358 30.9195 64.4358C54.9601 64.4358 64.5776 42.412 68.2108 19.3604C60.7016 28.3606 51.1605 35.4468 40.3742 40.0346C29.588 44.6223 17.8656 46.5802 6.17383 45.7468Z" fill="#66BB6A"/>
<path d="M49.938 22.9618C51.3015 20.7584 48.3159 18.46 46.5473 20.3536C46.5306 20.3718 46.514 20.39 46.4977 20.4083L32.8126 34.0931V22.9679C32.8126 22.3877 32.5821 21.8313 32.1719 21.4211C31.7616 21.0109 31.2052 20.7804 30.6251 20.7804C30.0449 20.7804 29.4885 21.0109 29.0783 21.4211C28.6681 21.8313 28.4376 22.3877 28.4376 22.9679V38.4681L21.8751 45.0306V32.8117C21.8751 32.2315 21.6446 31.6751 21.2344 31.2649C20.8241 30.8546 20.2677 30.6242 19.6876 30.6242C19.1074 30.6242 18.551 30.8546 18.1408 31.2649C17.7305 31.6751 17.5001 32.2315 17.5001 32.8117V49.4056L0.640744 66.2648C0.437604 66.468 0.276464 66.7091 0.166524 66.9745C0.0565851 67.2399 0 67.5244 0 67.8117C0 68.099 0.0565851 68.3834 0.166524 68.6488C0.276464 68.9142 0.437604 69.1554 0.640744 69.3585C0.843874 69.5617 1.08503 69.7228 1.35043 69.8327C1.61584 69.9427 1.9003 69.9993 2.18758 69.9993C2.47486 69.9993 2.75932 69.9427 3.02473 69.8327C3.29013 69.7228 3.53129 69.5617 3.73442 69.3585L20.5936 52.4992H41.5626V48.1242H24.9686L49.5917 23.5011C49.7102 23.3235 49.8256 23.1437 49.938 22.9618Z" fill="#66BB6A"/>
<path d="M28.7437 44.3496C25.0604 45.2591 21.292 45.7805 17.5001 45.9053V49.406L0.640744 66.2652C0.437604 66.4684 0.276464 66.7095 0.166524 66.9749C0.0565851 67.2403 0 67.5248 0 67.8121C0 68.0994 0.0565851 68.3838 0.166524 68.6492C0.276464 68.9146 0.437604 69.1558 0.640744 69.3589C0.843873 69.5621 1.08503 69.7232 1.35043 69.8331C1.61584 69.9431 1.9003 69.9997 2.18758 69.9997C2.47486 69.9997 2.75932 69.9431 3.02473 69.8331C3.29013 69.7232 3.53129 69.5621 3.73442 69.3589L20.5936 52.4996H41.5626V48.1246H24.9686L28.7437 44.3496Z" fill="#49AD4D"/>
<path d="M56.8756 38.2801C56.646 38.2803 56.4221 38.2082 56.2357 38.0741C56.0494 37.9399 55.91 37.7505 55.8373 37.5327C55.7646 37.3148 55.7623 37.0797 55.8307 36.8605C55.8991 36.6413 56.0348 36.4492 56.2185 36.3114L60.156 33.3583V27.3426C60.156 27.1626 60.2005 26.9853 60.2855 26.8266C60.3705 26.6678 60.4933 26.5325 60.6431 26.4326L63.9244 24.2451C64.1658 24.0876 64.4595 24.0318 64.7419 24.0897C65.0242 24.1476 65.2723 24.3146 65.4321 24.5544C65.592 24.7942 65.6508 25.0874 65.5956 25.3703C65.5405 25.6532 65.376 25.9029 65.1378 26.0651L62.3435 27.9279V33.9051C62.3435 34.0749 62.304 34.2424 62.228 34.3943C62.1521 34.5462 62.0419 34.6783 61.906 34.7801L57.531 38.0614C57.3421 38.2035 57.112 38.2803 56.8756 38.2801Z" fill="#9C7B70"/>
<path d="M39.3738 38.2794C39.1374 38.2796 38.9073 38.2028 38.7184 38.0607L34.3434 34.7794C34.2076 34.6776 34.0973 34.5454 34.0214 34.3936C33.9454 34.2417 33.9059 34.0742 33.9059 33.9044V27.9272L31.1118 26.0644C30.9907 25.9855 30.8865 25.8833 30.8052 25.7638C30.7239 25.6442 30.6671 25.5098 30.638 25.3682C30.609 25.2266 30.6083 25.0807 30.636 24.9388C30.6637 24.7969 30.7192 24.662 30.7994 24.5417C30.8796 24.4215 30.9828 24.3183 31.1031 24.2381C31.2234 24.158 31.3584 24.1025 31.5003 24.0749C31.6422 24.0472 31.7881 24.048 31.9297 24.0771C32.0713 24.1062 32.2057 24.1631 32.3252 24.2444L35.6064 26.4319C35.7562 26.5318 35.879 26.6671 35.964 26.8259C36.049 26.9846 36.0934 27.1619 36.0934 27.3419V33.3576L40.0309 36.3107C40.2146 36.4485 40.3503 36.6406 40.4187 36.8598C40.4871 37.079 40.4848 37.3141 40.4122 37.5319C40.3395 37.7498 40.2 37.9392 40.0137 38.0733C39.8273 38.2075 39.6035 38.2796 39.3738 38.2794Z" fill="#9C7B70"/>
<path d="M27.3435 55.7802C27.1272 55.7802 26.9157 55.716 26.7359 55.5959C26.556 55.4757 26.4158 55.3049 26.333 55.105C26.2502 54.9051 26.2286 54.6852 26.2708 54.473C26.313 54.2609 26.4172 54.066 26.5701 53.913L29.531 50.9522V45.9364C29.531 45.7333 29.5876 45.5342 29.6944 45.3614C29.8012 45.1887 29.9539 45.049 30.1356 44.9582L34.5106 42.7707C34.6392 42.7051 34.7795 42.6657 34.9234 42.6546C35.0674 42.6435 35.2121 42.661 35.3492 42.7061C35.4863 42.7512 35.6131 42.823 35.7224 42.9174C35.8316 43.0118 35.9211 43.1268 35.9857 43.2559C36.0502 43.385 36.0886 43.5256 36.0986 43.6696C36.1085 43.8137 36.0899 43.9582 36.0437 44.095C35.9975 44.2317 35.9247 44.358 35.8295 44.4665C35.7343 44.575 35.6186 44.6636 35.489 44.7272L31.7185 46.6124V51.4052C31.7185 51.5488 31.6903 51.691 31.6353 51.8237C31.5803 51.9564 31.4998 52.077 31.3982 52.1786L28.117 55.4598C28.0155 55.5616 27.8949 55.6422 27.7622 55.6972C27.6295 55.7522 27.4872 55.7804 27.3435 55.7802Z" fill="#9C7B70"/>
<path d="M68.9059 55.7804C68.7623 55.7806 68.62 55.7524 68.4873 55.6974C68.3545 55.6424 68.234 55.5617 68.1325 55.46L64.8513 52.1788C64.7497 52.0772 64.6691 51.9566 64.6142 51.8239C64.5592 51.6912 64.5309 51.549 64.5309 51.4054V46.6126L60.7605 44.7273C60.5034 44.5962 60.3085 44.3688 60.2183 44.0947C60.1282 43.8205 60.15 43.5219 60.2791 43.2637C60.4082 43.0056 60.634 42.809 60.9075 42.7166C61.1809 42.6243 61.4797 42.6438 61.7389 42.7709L66.1139 44.9584C66.2955 45.0492 66.4483 45.1889 66.5551 45.3616C66.6619 45.5344 66.7184 45.7335 66.7184 45.9366V50.9524L69.6794 53.9132C69.8323 54.0662 69.9365 54.2611 69.9787 54.4732C70.0209 54.6854 69.9993 54.9053 69.9165 55.1052C69.8337 55.305 69.6935 55.4759 69.5136 55.5961C69.3337 55.7162 69.1223 55.7804 68.9059 55.7804Z" fill="#9C7B70"/>
<path d="M30.6248 69.999C30.4085 69.9991 30.197 69.9349 30.0171 69.8147C29.8372 69.6945 29.6971 69.5237 29.6143 69.3239C29.5315 69.124 29.5098 68.9041 29.552 68.6919C29.5942 68.4797 29.6984 68.2848 29.8514 68.1319L32.8123 65.1711V60.1553C32.8123 60.0117 32.8406 59.8694 32.8955 59.7367C32.9505 59.604 33.0311 59.4834 33.1326 59.3819L35.3201 57.1944C35.4217 57.0928 35.5423 57.0122 35.675 56.9573C35.8077 56.9023 35.9499 56.874 36.0935 56.874C36.2372 56.874 36.3794 56.9023 36.5121 56.9573C36.6448 57.0122 36.7654 57.0928 36.867 57.1944C36.9685 57.2959 37.0491 57.4165 37.1041 57.5492C37.159 57.6819 37.1873 57.8242 37.1873 57.9678C37.1873 58.1114 37.159 58.2537 37.1041 58.3864C37.0491 58.5191 36.9685 58.6397 36.867 58.7412L34.9998 60.6082V65.624C34.9998 65.7677 34.9715 65.9099 34.9165 66.0426C34.8616 66.1753 34.781 66.2959 34.6795 66.3975L31.3982 69.6787C31.2968 69.7804 31.1762 69.8611 31.0435 69.9161C30.9107 69.971 30.7685 69.9992 30.6248 69.999Z" fill="#9C7B70"/>
<path d="M65.6248 69.999C65.4811 69.9992 65.3388 69.971 65.2061 69.9161C65.0734 69.8611 64.9528 69.7804 64.8514 69.6787L61.5701 66.3975C61.4686 66.2959 61.388 66.1753 61.333 66.0426C61.2781 65.9099 61.2498 65.7677 61.2498 65.624V60.6082L59.3826 58.7412C59.1775 58.5361 59.0623 58.2579 59.0623 57.9678C59.0623 57.6777 59.1775 57.3995 59.3826 57.1944C59.5877 56.9893 59.8659 56.874 60.156 56.874C60.4461 56.874 60.7243 56.9893 60.9295 57.1944L63.117 59.3819C63.2185 59.4834 63.2991 59.604 63.354 59.7367C63.409 59.8694 63.4373 60.0117 63.4373 60.1553V65.1711L66.3982 68.1319C66.5512 68.2848 66.6554 68.4797 66.6976 68.6919C66.7398 68.9041 66.7181 69.124 66.6353 69.3239C66.5525 69.5237 66.4123 69.6945 66.2325 69.8147C66.0526 69.9349 65.8411 69.9991 65.6248 69.999Z" fill="#9C7B70"/>
<path d="M45.936 29.53C45.7204 29.5302 45.5096 29.4661 45.3304 29.3462C41.9083 27.0638 38.2808 25.3032 38.2808 20.78C38.2808 19.3073 40.4683 19.4265 40.4683 20.78C40.4683 24.4869 44.0139 25.8399 46.5438 27.5263C46.7391 27.6566 46.8874 27.8462 46.9666 28.0673C47.0458 28.2883 47.0518 28.529 46.9836 28.7537C46.9155 28.9784 46.7768 29.1753 46.5882 29.3151C46.3995 29.4549 46.1709 29.5302 45.936 29.53Z" fill="#9C7B70"/>
<path d="M50.3133 29.53C50.0784 29.5302 49.8497 29.4548 49.6611 29.315C49.4724 29.1752 49.3337 28.9783 49.2656 28.7536C49.1974 28.5289 49.2034 28.2882 49.2827 28.0671C49.3619 27.846 49.5103 27.6563 49.7057 27.5261C52.2839 25.8074 55.781 24.5969 55.781 20.78C55.781 19.3074 57.9685 19.4265 57.9685 20.78C57.9685 25.173 54.1291 27.2058 50.9191 29.3462C50.7398 29.4661 50.5289 29.5301 50.3133 29.53Z" fill="#9C7B70"/>
<path d="M54.9901 32.7295C54.6133 31.1932 53.7322 29.8278 52.4876 28.8515C51.243 27.8753 49.707 27.3447 48.1252 27.3447C46.5434 27.3447 45.0073 27.8753 43.7628 28.8515C42.5182 29.8278 41.637 31.1932 41.2603 32.7295L40.5002 35.833H55.7501L54.9901 32.7295Z" fill="#A1887F"/>
<path d="M54.9901 32.7301C54.5736 31.0175 53.5308 29.5231 52.0673 28.541C49.8789 32.2343 45.4711 34.4609 41.0028 33.7814L40.5002 35.8336H55.7501L54.9901 32.7301Z" fill="#9C7B70"/>
<path d="M44.844 31.7178C45.4481 31.7178 45.9377 31.2281 45.9377 30.624C45.9377 30.02 45.4481 29.5303 44.844 29.5303C44.2399 29.5303 43.7502 30.02 43.7502 30.624C43.7502 31.2281 44.2399 31.7178 44.844 31.7178Z" fill="#BCAAA4"/>
<path d="M52.5002 34.999H43.7502C41.1404 35.002 38.6383 36.04 36.7929 37.8854C34.9475 39.7309 33.9094 42.2329 33.9065 44.8428V51.4053H62.344V44.8428C62.3411 42.2329 61.303 39.7309 59.4576 37.8854C57.6122 36.04 55.1101 35.002 52.5002 34.999Z" fill="#BCAAA4"/>
<path d="M48.1252 65.6213C44.3559 65.6174 40.7419 64.1185 38.0763 61.4534C35.4107 58.7883 33.9111 55.1747 33.9065 51.4053C33.9094 48.7954 34.9475 46.2934 36.7929 44.4479C38.6383 42.6025 41.1404 41.5645 43.7502 41.5615H52.5002C55.1101 41.5645 57.6122 42.6025 59.4576 44.4479C61.303 46.2934 62.3411 48.7954 62.344 51.4053C62.3394 55.1747 60.8398 58.7883 58.1742 61.4534C55.5086 64.1185 51.8946 65.6174 48.1252 65.6213Z" fill="#A1887F"/>
<path d="M37.6238 60.9798C39.5549 63.0998 42.0822 64.5861 44.8736 65.2434C47.665 65.9006 50.59 65.6981 53.2641 64.6624C55.9383 63.6267 58.2366 61.8062 59.8571 59.4402C61.4777 57.0742 62.3445 54.2734 62.3439 51.4056C62.3453 49.8054 61.954 48.2292 61.2043 46.8154C57.9727 56.3393 47.9957 62.6614 37.6238 60.9798Z" fill="#9C7B70"/>
<path d="M55.7815 42.1259C55.074 41.875 54.34 41.7065 53.594 41.6237V52.499C53.594 56.1668 51.9204 59.8835 49.219 62.4239V41.5615H47.0315V62.4239C44.3301 59.8836 42.6565 56.1668 42.6565 52.499V41.6237C41.9105 41.7065 41.1764 41.875 40.469 42.1259V52.499C40.469 57.4971 43.1406 62.5718 47.2751 65.4274C47.5295 65.5825 47.8274 65.6506 48.1239 65.6216C48.421 65.6485 48.719 65.5806 48.9751 65.4276C53.1099 62.5718 55.7815 57.4971 55.7815 52.499V42.1259Z" fill="#876559"/>
<path d="M37.1877 53.5928C38.3959 53.5928 39.3752 52.6134 39.3752 51.4053C39.3752 50.1972 38.3959 49.2178 37.1877 49.2178C35.9796 49.2178 35.0002 50.1972 35.0002 51.4053C35.0002 52.6134 35.9796 53.5928 37.1877 53.5928Z" fill="#BCAAA4"/>
<path d="M38.2815 57.9678C38.8856 57.9678 39.3752 57.4781 39.3752 56.874C39.3752 56.27 38.8856 55.7803 38.2815 55.7803C37.6774 55.7803 37.1877 56.27 37.1877 56.874C37.1877 57.4781 37.6774 57.9678 38.2815 57.9678Z" fill="#BCAAA4"/>
<path d="M64.0075 10.9363C66.1343 10.9363 67.8584 9.21216 67.8584 7.08533C67.8584 4.95851 66.1343 3.23438 64.0075 3.23438C61.8806 3.23438 60.1565 4.95851 60.1565 7.08533C60.1565 9.21216 61.8806 10.9363 64.0075 10.9363Z" fill="#C8E6C9"/>
<path d="M62.344 17.499C63.5521 17.499 64.5315 16.5196 64.5315 15.3115C64.5315 14.1034 63.5521 13.124 62.344 13.124C61.1359 13.124 60.1565 14.1034 60.1565 15.3115C60.1565 16.5196 61.1359 17.499 62.344 17.499Z" fill="#C8E6C9"/>
</svg>
