<svg width="64" height="64" viewBox="0 0 64 64" fill="none" xmlns="http://www.w3.org/2000/svg">
<path d="M0.28125 24.3438V28.7188H4.65625V24.3438C4.65625 19.1223 6.73046 14.1147 10.4226 10.4226C14.1147 6.73046 19.1223 4.65625 24.3438 4.65625C29.5652 4.65625 34.5728 6.73046 38.2649 10.4226C41.957 14.1147 44.0312 19.1223 44.0312 24.3438V28.7188H48.4062V24.3438C48.4062 17.962 45.8711 11.8416 41.3585 7.32899C36.8459 2.8164 30.7255 0.28125 24.3438 0.28125C17.962 0.28125 11.8416 2.8164 7.32899 7.32899C2.8164 11.8416 0.28125 17.962 0.28125 24.3438Z" fill="#85CCD5"/>
<path d="M40.75 30.9062H25.4375V19.9688L29.8125 15.5938H36.375L40.75 19.9688V30.9062Z" fill="#FFB431"/>
<path d="M29.8125 9.03125H36.375V15.5938H29.8125V9.03125Z" fill="#D65246"/>
<path d="M32 19.9688H40.75V22.1562H32V19.9688Z" fill="#FFC261"/>
<path d="M9.67191 14.9531L17.7812 6.84375L23.25 12.3125L21.0625 14.5L24.7968 18.2343C25.207 18.6446 25.4375 19.2009 25.4375 19.781V41.8438C25.4375 42.4239 25.207 42.9803 24.7968 43.3905C24.3866 43.8008 23.8302 44.0312 23.25 44.0312H11.2188C10.6386 44.0312 10.0822 43.8008 9.67195 43.3905C9.26172 42.9803 9.03125 42.4239 9.03125 41.8438V16.4998C9.03127 15.9197 9.26172 15.3633 9.67191 14.9531Z" fill="#8851A0"/>
<path d="M17.7812 6.84375L21.0625 3.5625H24.3438L26.5312 5.75V9.03125L23.25 12.3125L17.7812 6.84375Z" fill="#D65246"/>
<path d="M44.0312 24.3438V28.7188L39.6562 63.7188H9.03125L4.65625 28.7188V24.3438H44.0312Z" fill="#348ED8"/>
<path d="M44.0312 27.625V28.7188L43.8945 29.8125H7.9375V27.625H44.0312Z" fill="#2C86D1"/>
<path d="M25.4375 52.7812V63.7188H9.03125L7.66406 52.7812H25.4375Z" fill="#2C86D1"/>
<path d="M59.3438 28.7188H44.0312C44.0312 26.9783 44.7227 25.3091 45.9534 24.0784C47.1841 22.8477 48.8533 22.1563 50.5938 22.1562H59.3438V28.7188Z" fill="#D65246"/>
<path d="M59.3438 23.25H63.7188V27.625H59.3438V23.25Z" fill="#C94C41"/>
<path d="M48.4062 28.7188H53.875V33.0938H48.4062V28.7188Z" fill="#C94C41"/>
<path d="M53.875 33.0938H48.4062C48.4062 38.0343 46.6389 42.8119 43.4237 46.563L41.8438 48.4062V61.5312C41.8438 62.1114 42.0742 62.6678 42.4845 63.078C42.8947 63.4883 43.4511 63.7188 44.0312 63.7188H58.25C58.8302 63.7188 59.3866 63.4883 59.7968 63.078C60.207 62.6678 60.4375 62.1114 60.4375 61.5312V48.4062L58.8576 46.563C55.6423 42.8119 53.875 38.0343 53.875 33.0938Z" fill="#FFB431"/>
<path d="M46.2188 48.4062H60.4375V50.5938H46.2188V48.4062Z" fill="#FFC261"/>
<path d="M13.4789 39.5837L19.9688 33.0938V24.3438H37.4689V49.5C37.4689 50.0802 37.2384 50.6366 36.8282 51.0468C36.4179 51.457 35.8615 51.6875 35.2814 51.6875C34.7012 51.6875 34.1448 51.457 33.7346 51.0468C33.3243 50.6366 33.0939 50.0802 33.0939 49.5C33.0939 50.0802 32.8634 50.6366 32.4532 51.0468C32.0429 51.457 31.4865 51.6875 30.9064 51.6875C30.3262 51.6875 29.7698 51.457 29.3596 51.0468C28.9493 50.6366 28.7189 50.0802 28.7189 49.5C28.7189 50.0802 28.4884 50.6366 28.0781 51.0468C27.6679 51.457 27.1115 51.6875 26.5314 51.6875C25.9512 51.6875 25.3948 51.457 24.9846 51.0468C24.5743 50.6366 24.3439 50.0802 24.3439 49.5C24.3439 50.0802 24.1134 50.6366 23.7031 51.0468C23.2929 51.457 22.7365 51.6875 22.1563 51.6875C21.5762 51.6875 21.0198 51.457 20.6096 51.0468C20.1993 50.6366 19.9688 50.0802 19.9688 49.5V39.2461L16.2266 42.5205C16.0111 42.7091 15.7577 42.8495 15.4836 42.9324C15.2094 43.0152 14.9208 43.0386 14.6369 43.0009C14.3529 42.9632 14.0804 42.8653 13.8373 42.7138C13.5943 42.5623 13.3864 42.3607 13.2275 42.1224C12.9695 41.7354 12.8536 41.2709 12.8994 40.8081C12.9453 40.3452 13.1501 39.9125 13.4789 39.5837Z" fill="#4DB6E4"/>
<path d="M32 40.75H34.1875V49.5H32V40.75Z" fill="#3BA5D3"/>
<path d="M27.625 40.75H29.8125V49.5H27.625V40.75Z" fill="#3BA5D3"/>
<path d="M23.25 40.75H25.4375V49.5H23.25V40.75Z" fill="#3BA5D3"/>
<path d="M0.28125 54.9688H23.25V63.7188H0.28125V54.9688Z" fill="#FFB431"/>
<path d="M0.28125 50.5938H23.25V54.9688H0.28125V50.5938Z" fill="#5F9448"/>
<path d="M3.5625 58.25H5.75V60.4375H3.5625V58.25Z" fill="#F9A40F"/>
<path d="M7.9375 57.1562H10.125V59.3438H7.9375V57.1562Z" fill="#F9A40F"/>
<path d="M17.7812 58.25H19.9688V60.4375H17.7812V58.25Z" fill="#F9A40F"/>
</svg>
