<svg width="70" height="70" viewBox="0 0 70 70" fill="none" xmlns="http://www.w3.org/2000/svg">
<path d="M63.778 29.5723V45.9375H58.4692V29.5723H61.1858H63.778Z" fill="#DAAA79"/>
<path d="M49.0054 57.5883V60.0984C49.005 60.5334 48.832 60.9505 48.5244 61.2581C48.2168 61.5657 47.7998 61.7387 47.3647 61.7391H44.2612V51.2021H47.3647C47.7999 51.2021 48.2172 51.375 48.5248 51.6827C48.8325 51.9904 49.0054 52.4077 49.0054 52.8428V57.5883Z" fill="#49BDFF"/>
<path d="M6.22192 59.2754V63.9977C6.22192 64.8679 6.56763 65.7025 7.18298 66.3179C7.79833 66.9332 8.63293 67.2789 9.50317 67.2789H40.9799C41.4109 67.279 41.8376 67.1942 42.2358 67.0294C42.6339 66.8645 42.9957 66.6228 43.3004 66.3181C43.6051 66.0134 43.8468 65.6516 44.0117 65.2535C44.1765 64.8553 44.2613 64.4286 44.2612 63.9977V59.2754H6.22192Z" fill="#F43B3B"/>
<path d="M6.22192 23.6035H44.2612V59.2762H6.22192V23.6035Z" fill="#FF5A81"/>
<path d="M31.5669 2.7207H18.9163C18.2865 2.72085 17.6826 2.9711 17.2372 3.41643C16.7919 3.86176 16.5416 4.46571 16.5415 5.09551V5.20762C16.5416 5.83741 16.7919 6.44137 17.2372 6.8867C17.6826 7.33203 18.2865 7.58228 18.9163 7.58242H31.5669C31.8788 7.58246 32.1876 7.52106 32.4757 7.40172C32.7639 7.28239 33.0257 7.10747 33.2462 6.88694C33.4668 6.66641 33.6417 6.4046 33.761 6.11646C33.8803 5.82832 33.9417 5.51949 33.9417 5.20762V5.09551C33.9417 4.78363 33.8803 4.47481 33.761 4.18667C33.6417 3.89853 33.4668 3.63672 33.2462 3.41619C33.0257 3.19566 32.7639 3.02073 32.4757 2.9014C32.1876 2.78207 31.8788 2.72067 31.5669 2.7207Z" fill="#49BDFF"/>
<path d="M29.2755 7.58203V11.0807H21.216L21.2009 7.58203H29.2755Z" fill="#F43B3B"/>
<path d="M40.9799 15.5986H9.50317C8.633 15.5989 7.79853 15.9446 7.18322 16.5599C6.56791 17.1752 6.22214 18.0097 6.22192 18.8799V23.6035H44.2612V18.8799C44.2612 18.0096 43.9155 17.175 43.3001 16.5597C42.6848 15.9443 41.8502 15.5986 40.9799 15.5986Z" fill="#F43B3B"/>
<path d="M31.4453 35.2367C31.4289 35.2203 31.4125 35.2039 31.3961 35.1889C29.7465 33.5664 27.5227 32.6614 25.2089 32.671C22.8951 32.6806 20.6789 33.6039 19.0428 35.24C17.4067 36.8761 16.4833 39.0924 16.4737 41.4062C16.4641 43.7199 17.3691 45.9438 18.9916 47.5934C19.0066 47.6098 19.023 47.6262 19.0395 47.6426C20.6857 49.2822 22.9152 50.2018 25.2387 50.1994C27.5622 50.1971 29.7899 49.273 31.4328 47.6301C33.0758 45.9871 33.9998 43.7595 34.0021 41.436C34.0045 39.1125 33.0849 36.883 31.4453 35.2367Z" fill="#FFDB00"/>
<path d="M38.2142 11.0811H12.269C11.7614 11.0811 11.2746 11.2827 10.9156 11.6417C10.5566 12.0006 10.355 12.4875 10.355 12.9951V15.5982H40.1282V12.9951C40.1282 12.4875 39.9266 12.0006 39.5676 11.6417C39.2087 11.2827 38.7218 11.0811 38.2142 11.0811Z" fill="#FF5A81"/>
<path d="M23.0933 47.5929C22.0035 46.4859 21.2271 45.1095 20.8437 43.6042C20.4602 42.0988 20.4833 40.5187 20.9107 39.0253C21.338 37.5318 22.1543 36.1787 23.2761 35.1041C24.3978 34.0295 25.7848 33.2721 27.2952 32.9093C25.4421 32.4636 23.4943 32.6335 21.7464 33.3933C19.9985 34.1531 18.5455 35.4614 17.6074 37.1204C16.6692 38.7795 16.2968 40.6989 16.5466 42.5884C16.7964 44.4779 17.6547 46.2346 18.9917 47.5929C19.0068 47.6093 19.0232 47.6257 19.0396 47.6421C20.101 48.7041 21.4173 49.4757 22.8625 49.883C24.3076 50.2903 25.8332 50.3196 27.2929 49.9681C25.7202 49.5923 24.2829 48.787 23.1411 47.6421C23.1247 47.6257 23.1083 47.6093 23.0933 47.5929Z" fill="#FFEC8D"/>
<path d="M10.3235 63.9977V59.2754H6.22192V63.9977C6.22192 64.8679 6.56763 65.7025 7.18298 66.3179C7.79833 66.9332 8.63293 67.2789 9.50318 67.2789H13.6047C12.7345 67.2789 11.8999 66.9332 11.2845 66.3179C10.6692 65.7025 10.3235 64.8679 10.3235 63.9977Z" fill="#FF8383"/>
<path d="M6.22192 23.6035H10.3235V59.2762H6.22192V23.6035Z" fill="#FFABC3"/>
<path d="M10.3235 18.8799C10.3237 18.0097 10.6695 17.1752 11.2848 16.5599C11.9001 15.9446 12.7346 15.5989 13.6047 15.5986H9.50318C8.633 15.5989 7.79853 15.9446 7.18322 16.5599C6.56791 17.1752 6.22214 18.0097 6.22192 18.8799V23.6035H10.3235V18.8799Z" fill="#FF8383"/>
<path d="M14.4565 15.5982V12.9951C14.4565 12.4875 14.6582 12.0006 15.0172 11.6417C15.3761 11.2827 15.863 11.0811 16.3706 11.0811H12.269C11.7614 11.0811 11.2746 11.2827 10.9156 11.6417C10.5566 12.0006 10.355 12.4875 10.355 12.9951V15.5982H14.4565Z" fill="#FFABC3"/>
<path d="M49.0051 58.4095V56.7688C49.7239 56.7688 50.2583 56.5819 50.6388 56.1976C51.231 55.5992 51.5228 54.4538 51.5059 52.7933L51.2356 15.1507C51.2292 13.6626 51.8127 12.2326 52.8581 11.1737C53.3452 10.6713 53.9275 10.2711 54.571 9.99631C55.2145 9.72152 55.9063 9.5777 56.606 9.57324H56.6197C57.3148 9.57581 58.0026 9.71598 58.6433 9.98566C59.284 10.2553 59.865 10.6492 60.3528 11.1446C61.4038 12.1935 61.9978 13.6151 62.0056 15.1V29.5723H60.365V15.1C60.3584 14.0508 59.9377 13.0467 59.1944 12.3062C58.8585 11.9633 58.4581 11.6902 58.0162 11.5027C57.5743 11.3152 57.0997 11.2171 56.6197 11.2139H56.61C56.1268 11.2184 55.6493 11.3191 55.2054 11.5101C54.7615 11.7012 54.3602 11.9788 54.0248 12.3266C53.2854 13.0745 52.8725 14.0847 52.8763 15.1363L53.1466 52.7786C53.1684 54.9209 52.7296 56.4177 51.8049 57.3518C51.11 58.0536 50.1681 58.4095 49.0051 58.4095Z" fill="#D4E1F4"/>
<path d="M32.0249 34.6557C30.6836 33.3157 28.9752 32.4034 27.1155 32.0342C25.2558 31.6649 23.3285 31.8553 21.577 32.5813C19.8255 33.3073 18.3286 34.5362 17.2754 36.1127C16.2223 37.6893 15.6602 39.5427 15.6602 41.4387C15.6602 43.3346 16.2223 45.188 17.2754 46.7646C18.3286 48.3412 19.8255 49.5701 21.577 50.2961C23.3285 51.022 25.2558 51.2124 27.1155 50.8432C28.9752 50.474 30.6836 49.5617 32.0249 48.2216C33.8212 46.4213 34.8299 43.9819 34.8299 41.4387C34.8299 38.8955 33.8212 36.4561 32.0249 34.6557ZM19.6192 35.8159C21.0016 34.4333 22.845 33.6086 24.7971 33.4994C26.7493 33.3902 28.6732 34.0041 30.2012 35.2239L19.0272 46.3981C17.8099 44.869 17.1975 42.9456 17.3066 40.9942C17.4158 39.0428 18.2389 37.1997 19.6192 35.8159ZM30.865 47.0616C29.4645 48.4581 27.5945 49.2835 25.6189 49.377C23.6434 49.4705 21.7037 48.8255 20.1777 47.5674L31.3715 36.3736C32.6297 37.8998 33.2747 39.8397 33.1811 41.8154C33.0874 43.7911 32.2617 45.6612 30.8648 47.0616H30.865Z" fill="#AD2A34"/>
<path d="M10.6594 46.1615C10.4419 46.1615 10.2332 46.0751 10.0794 45.9212C9.92554 45.7674 9.83911 45.5587 9.83911 45.3412V31.8037C9.83911 31.5861 9.92554 31.3775 10.0794 31.2237C10.2332 31.0698 10.4419 30.9834 10.6594 30.9834C10.877 30.9834 11.0856 31.0698 11.2395 31.2237C11.3933 31.3775 11.4797 31.5861 11.4797 31.8037V45.3412C11.4797 45.5587 11.3933 45.7674 11.2395 45.9212C11.0856 46.0751 10.877 46.1615 10.6594 46.1615Z" fill="#F4F8FC"/>
<path d="M10.6594 30.2036C10.4419 30.2036 10.2332 30.1172 10.0794 29.9633C9.92554 29.8095 9.83911 29.6009 9.83911 29.3833V28.4229C9.83911 28.2053 9.92554 27.9966 10.0794 27.8428C10.2332 27.689 10.4419 27.6025 10.6594 27.6025C10.877 27.6025 11.0856 27.689 11.2395 27.8428C11.3933 27.9966 11.4797 28.2053 11.4797 28.4229V29.3833C11.4797 29.6009 11.3933 29.8095 11.2395 29.9633C11.0856 30.1172 10.877 30.2036 10.6594 30.2036Z" fill="#F4F8FC"/>
<path d="M61.1858 61.2907C60.9682 61.2907 60.7596 61.2043 60.6057 61.0505C60.4519 60.8966 60.3655 60.688 60.3655 60.4704V52.4238C60.3655 52.2063 60.4519 51.9976 60.6057 51.8438C60.7596 51.6899 60.9682 51.6035 61.1858 51.6035C61.4034 51.6035 61.612 51.6899 61.7658 51.8438C61.9197 51.9976 62.0061 52.2063 62.0061 52.4238V60.4704C62.0061 60.688 61.9197 60.8966 61.7658 61.0505C61.612 61.2043 61.4034 61.2907 61.1858 61.2907Z" fill="#D4E1F4"/>
<path d="M63.778 45.9375L62.9577 52.284H59.2896L58.4692 45.9375H63.778Z" fill="#C79A83"/>
</svg>
