<svg width="70" height="70" viewBox="0 0 70 70" fill="none" xmlns="http://www.w3.org/2000/svg">
<g clip-path="url(#clip0)">
<path d="M23.6627 69.9958C24.7952 69.9958 25.7133 69.0777 25.7133 67.9452C25.7133 66.8126 24.7952 65.8945 23.6627 65.8945C22.5302 65.8945 21.6121 66.8126 21.6121 67.9452C21.6121 69.0777 22.5302 69.9958 23.6627 69.9958Z" fill="#465A61"/>
<path d="M3.15636 57.6911C4.2889 57.6911 5.207 56.773 5.207 55.6405C5.207 54.5079 4.2889 53.5898 3.15636 53.5898C2.02382 53.5898 1.10571 54.5079 1.10571 55.6405C1.10571 56.773 2.02382 57.6911 3.15636 57.6911Z" fill="#465A61"/>
<path d="M11.3588 61.7927C12.4913 61.7927 13.4094 60.8746 13.4094 59.742C13.4094 58.6095 12.4913 57.6914 11.3588 57.6914C10.2262 57.6914 9.30811 58.6095 9.30811 59.742C9.30811 60.8746 10.2262 61.7927 11.3588 61.7927Z" fill="#465A61"/>
<path d="M15.4602 69.9955H7.25765C3.86533 69.9955 1.10571 67.2359 1.10571 63.8436C1.10571 62.7102 2.0229 61.793 3.15636 61.793C4.28982 61.793 5.207 62.7102 5.207 63.8436C5.207 64.975 6.12624 65.8943 7.25765 65.8943H15.4602C16.5937 65.8943 17.5109 66.8114 17.5109 67.9449C17.5109 69.0784 16.5937 69.9955 15.4602 69.9955Z" fill="#465A61"/>
<path d="M67.7622 0.216197C66.7428 -0.288399 65.5172 0.12009 65.0085 1.13133L45.4594 40.1617C44.8566 41.3672 45.4606 42.4259 46.3685 42.8894C47.2863 43.3583 48.5149 43.219 49.1281 42L68.6773 2.96967C69.1839 1.95637 68.7734 0.724757 67.7622 0.216197Z" fill="#465A61"/>
<path d="M49.128 41.9998L68.6773 2.96943C69.1839 1.95613 68.7734 0.724517 67.7621 0.21582L46.3684 42.8892C47.2864 43.3581 48.515 43.2189 49.128 41.9998Z" fill="#3B4A51"/>
<path d="M53.7118 41.9972L48.1982 39.2405L42.7203 36.5015C39.6854 34.984 35.9942 36.2144 34.4356 39.2495L33.5334 41.0541L37.464 47.1279L43.299 49.0123L48.8845 50.8164L55.5162 52.0865L56.4594 50.2409C57.9772 47.2467 56.7468 43.5147 53.7118 41.9972Z" fill="#F8BB5E"/>
<path d="M55.5164 52.0862L56.4596 50.2406C57.9771 47.2465 56.7467 43.5145 53.7118 41.997L48.1982 39.2402L43.2991 49.0121L48.8845 50.8161L55.5164 52.0862Z" fill="#FF9F00"/>
<path d="M44.5233 46.5693L33.5332 41.0537L32.6308 42.8992C29.5656 49.4682 20.1896 51.4642 14.9132 52.7834C14.0521 52.9063 13.3139 53.5626 13.1497 54.4648C13.0268 55.3672 13.4779 56.2283 14.2572 56.6386L24.0593 61.5602C25.8228 62.4213 27.7913 62.7905 29.678 62.5855C29.473 63.4876 29.8831 64.4719 30.7852 64.9229L34.4094 66.7432L39.9312 69.7899C40.7105 70.1589 41.6126 70.036 42.228 69.4617C46.1012 66.1421 52.0318 59.0956 54.614 53.9313L55.516 52.0862L44.5233 46.5693Z" fill="#FFE470"/>
<path d="M42.2281 69.462C46.1014 66.1424 52.032 59.0958 54.6142 53.9316L55.5162 52.0863L44.5235 46.5693L34.4094 66.7433L39.9313 69.7901C40.7107 70.1592 41.6128 70.0363 42.2281 69.462Z" fill="#F8BB5E"/>
</g>
<defs>
<clipPath id="clip0">
<rect width="70" height="70" fill="white"/>
</clipPath>
</defs>
</svg>
